<svg xmlns="http://www.w3.org/2000/svg" version="1.1" xmlns:xlink="http://www.w3.org/1999/xlink" xmlns:svgjs="http://svgjs.dev/svgjs" width="1000" height="297" viewBox="0 0 1000 297"><g transform="matrix(1,0,0,1,-0.6060606060606233,0.2910558929080196)"><svg viewBox="0 0 396 118" data-background-color="#ffffff" preserveAspectRatio="xMidYMid meet" height="297" width="1000" xmlns="http://www.w3.org/2000/svg" xmlns:xlink="http://www.w3.org/1999/xlink"><g id="tight-bounds" transform="matrix(1,0,0,1,0.2400000000000091,-0.11563836822608664)"><svg viewBox="0 0 395.52 118.23127673645214" height="118.23127673645214" width="395.52"><g><svg viewBox="0 0 615.570478435016 184.0101223367734" height="118.23127673645214" width="395.52"><g transform="matrix(1,0,0,1,220.05047843501603,53.8390086066665)"><svg viewBox="0 0 395.5199999999999 76.3321051234404" height="76.3321051234404" width="395.5199999999999"><g><svg viewBox="0 0 395.5199999999999 76.3321051234404" height="76.3321051234404" width="395.5199999999999"><g><svg viewBox="0 0 395.5199999999999 76.3321051234404" height="76.3321051234404" width="395.5199999999999"><g transform="matrix(1,0,0,1,0,0)"><svg width="395.5199999999999" viewBox="3 -35.5 183.93 35.5" height="76.3321051234404" data-palette-color="#7a26c1"><path d="M37.99-25L37.99 0 31.01 0 31.01-25Q31.01-25.73 30.73-26.37 30.44-27 29.97-27.48 29.49-27.95 28.86-28.22 28.22-28.49 27.49-28.49L27.49-28.49Q26.76-28.49 26.12-28.22 25.49-27.95 25.01-27.48 24.54-27 24.27-26.37 24-25.73 24-25L24-25 24 0 16.99 0 16.99-25Q16.99-25.73 16.72-26.37 16.46-27 15.98-27.48 15.5-27.95 14.87-28.22 14.23-28.49 13.5-28.49L13.5-28.49Q12.77-28.49 12.13-28.22 11.5-27.95 11.02-27.48 10.55-27 10.28-26.37 10.01-25.73 10.01-25L10.01-25 10.01 0 3 0 3-25Q3-27.17 3.82-29.09 4.64-31.01 6.07-32.43 7.5-33.86 9.41-34.68 11.33-35.5 13.5-35.5L13.5-35.5Q15.45-35.5 17.26-34.8 19.07-34.11 20.51-32.79L20.51-32.79Q21.95-34.11 23.74-34.8 25.54-35.5 27.49-35.5L27.49-35.5Q29.66-35.5 31.58-34.68 33.5-33.86 34.92-32.43 36.35-31.01 37.17-29.09 37.99-27.17 37.99-25L37.99-25ZM59.74-10.96L59.74 0 52.76 0 52.76-10.96Q50.44-11.55 48.5-12.84 46.56-14.14 45.16-15.93 43.77-17.72 43-19.91 42.23-22.09 42.23-24.51L42.23-24.51 42.23-35.01 49.24-35.01 49.24-24.51Q49.24-23.07 49.79-21.79 50.34-20.51 51.29-19.56 52.24-18.6 53.53-18.05 54.81-17.5 56.25-17.5L56.25-17.5Q57.69-17.5 58.97-18.05 60.25-18.6 61.2-19.56 62.16-20.51 62.71-21.79 63.25-23.07 63.25-24.51L63.25-24.51 63.25-35.01 70.24-35.01 70.24-24.51Q70.24-22.09 69.47-19.91 68.7-17.72 67.31-15.93 65.92-14.14 63.99-12.84 62.06-11.55 59.74-10.96L59.74-10.96ZM123.72-25L123.72 0 116.74 0 116.74-25Q116.74-25.73 116.46-26.37 116.18-27 115.7-27.48 115.23-27.95 114.59-28.22 113.96-28.49 113.22-28.49L113.22-28.49Q112.49-28.49 111.86-28.22 111.22-27.95 110.75-27.48 110.27-27 110-26.37 109.73-25.73 109.73-25L109.73-25 109.73 0 102.73 0 102.73-25Q102.73-25.73 102.46-26.37 102.19-27 101.71-27.48 101.24-27.95 100.6-28.22 99.97-28.49 99.24-28.49L99.24-28.49Q98.5-28.49 97.87-28.22 97.23-27.95 96.76-27.48 96.28-27 96.01-26.37 95.74-25.73 95.74-25L95.74-25 95.74 0 88.74 0 88.74-25Q88.74-27.17 89.56-29.09 90.37-31.01 91.8-32.43 93.23-33.86 95.15-34.68 97.06-35.5 99.24-35.5L99.24-35.5Q101.19-35.5 103-34.8 104.8-34.11 106.24-32.79L106.24-32.79Q107.68-34.11 109.48-34.8 111.27-35.5 113.22-35.5L113.22-35.5Q115.4-35.5 117.31-34.68 119.23-33.86 120.66-32.43 122.09-31.01 122.91-29.09 123.72-27.17 123.72-25L123.72-25ZM153.97-7.01L153.97 0 129.97 0 129.97-35.01 153.97-35.01 153.97-28 136.98-28 136.98-21 148.48-21 148.48-13.99 136.98-13.99 136.98-7.01 153.97-7.01ZM186.93-17.5L186.93-17.5Q186.93-15.09 186.3-12.85 185.68-10.62 184.53-8.68 183.39-6.74 181.8-5.14 180.21-3.54 178.26-2.39 176.31-1.25 174.07-0.62 171.84 0 169.42 0L169.42 0 158.87 0 158.87-35.01 169.42-35.01Q171.84-35.01 174.07-34.39 176.31-33.76 178.26-32.62 180.21-31.47 181.8-29.87 183.39-28.27 184.53-26.33 185.68-24.39 186.3-22.16 186.93-19.92 186.93-17.5ZM179.92-17.5L179.92-17.5Q179.92-19.68 179.1-21.58 178.28-23.49 176.86-24.91 175.43-26.34 173.51-27.17 171.59-28 169.42-28L169.42-28 165.93-28 165.93-7.01 169.42-7.01Q171.59-7.01 173.51-7.82 175.43-8.64 176.86-10.07 178.28-11.5 179.1-13.42 179.92-15.33 179.92-17.5Z" opacity="1" transform="matrix(1,0,0,1,0,0)" fill="#7a26c1" class="undefined-text-0" data-fill-palette-color="primary" id="text-0"></path></svg></g></svg></g></svg></g></svg></g><g><svg viewBox="0 0 184.0101223367734 184.0101223367734" height="184.0101223367734" width="184.0101223367734"><g><svg></svg></g><g id="icon-0"><svg viewBox="0 0 184.0101223367734 184.0101223367734" height="184.0101223367734" width="184.0101223367734"><g><path d="M0 92.005c0-50.813 41.192-92.005 92.005-92.005 50.813 0 92.005 41.192 92.005 92.005 0 50.813-41.192 92.005-92.005 92.005-50.813 0-92.005-41.192-92.005-92.005zM92.005 177.126c47.011 0 85.121-38.11 85.121-85.121 0-47.011-38.11-85.121-85.121-85.121-47.011 0-85.121 38.11-85.121 85.121 0 47.011 38.11 85.121 85.121 85.121z" data-fill-palette-color="accent" fill="#a437db" stroke="transparent"></path></g><g transform="matrix(1,0,0,1,40.49740056142822,40.457128739217936)"><svg viewBox="0 0 103.01532121391696 103.09586485833753" height="103.09586485833753" width="103.01532121391696"><g><svg xmlns="http://www.w3.org/2000/svg" xmlns:xlink="http://www.w3.org/1999/xlink" version="1.1" x="0" y="0" viewBox="-252.95 348.95000000000005 95.92500000000001 96" enable-background="new -255 347 100 100" xml:space="preserve" height="103.09586485833753" width="103.01532121391696" class="icon-wb-0" data-fill-palette-color="accent" id="wb-0"><g fill="#a437db" data-fill-palette-color="accent"><path d="M-167.2 434.8c-8.2 8.2-21.6 8.2-29.8 0l-22.9-22.9 29.8-29.8 22.9 22.9C-159 413.2-159 426.6-167.2 434.8M-197.5 381.7c-0.7 0.7-1.8 0.7-2.5 0l-17.8-17.8c-5.6-5.6-14.8-5.6-20.4 0-0.7 0.7-1.8 0.7-2.5 0s-0.7-1.8 0-2.5c7-7 18.3-7 25.3 0l17.8 17.8C-196.8 379.9-196.8 381-197.5 381.7M-164.3 402.1l-22.9-22.9-22.9-22.9c-9.8-9.8-25.7-9.8-35.5 0-9.8 9.8-9.8 25.7 0 35.5l22.9 22.9 22.9 22.9c9.8 9.8 25.7 9.8 35.5 0C-154.6 427.9-154.6 411.9-164.3 402.1" fill="#a437db" data-fill-palette-color="accent"></path></g></svg></g></svg></g></svg></g></svg></g></svg></g><defs></defs></svg><rect width="395.52" height="118.23127673645214" fill="none" stroke="none" visibility="hidden"></rect></g></svg></g></svg>